<svg version="1.1" id="Layer_1" xmlns="http://www.w3.org/2000/svg" xmlns:xlink="http://www.w3.org/1999/xlink" x="0px" y="0px"
	 width="100%" viewBox="0 0 447 176" enable-background="new 0 0 447 176" xml:space="preserve">
<path fill="#FFFFFF" opacity="1.000000" stroke="none" 
	d="
M340.000000,177.000000 
	C226.666702,177.000000 113.833397,177.000000 1.000076,177.000000 
	C1.000051,118.333382 1.000051,59.666767 1.000025,1.000115 
	C149.999908,1.000077 298.999817,1.000077 447.999817,1.000038 
	C447.999878,59.666553 447.999878,118.333107 447.999939,176.999832 
	C412.166656,177.000000 376.333344,177.000000 340.000000,177.000000 
M48.438782,133.000000 
	C58.795422,132.827225 68.745323,131.459259 78.207161,126.491669 
	C94.380745,118.000320 97.163864,98.137383 91.658836,84.289345 
	C88.721588,76.900589 82.483154,73.147217 76.411552,71.095497 
	C79.821533,67.994629 84.354698,65.174583 87.100868,61.138618 
	C96.512062,47.307304 93.797424,24.797268 72.886261,18.322836 
	C62.302589,15.045965 51.549011,14.920149 40.689564,14.983745 
	C28.581848,15.054650 16.473396,15.000000 4.280353,15.000000 
	C4.280353,54.568081 4.280353,93.621689 4.280353,133.000000 
	C18.856844,133.000000 33.155415,133.000000 48.438782,133.000000 
M188.519653,110.030830 
	C182.084915,100.499550 175.650177,90.968262 169.762634,82.247490 
	C173.627548,78.713898 177.686035,75.659813 180.928757,71.901810 
	C187.668289,64.091316 189.252304,54.924332 188.159546,44.666115 
	C186.743378,31.371958 179.944412,22.779476 167.545547,19.084770 
	C160.148361,16.880505 152.299957,15.508465 144.593094,15.173748 
	C130.524063,14.562716 116.409500,15.000000 102.466736,15.000000 
	C102.466736,49.344166 102.466736,83.121498 102.466736,117.439552 
	C115.865990,108.365150 128.691986,99.678986 141.856857,90.763321 
	C149.414978,103.833199 156.677353,116.480965 164.067108,129.053848 
	C164.960190,130.573303 166.513565,132.785797 167.808380,132.818878 
	C179.347153,133.113708 190.896576,132.990555 203.199142,132.990555 
	C198.147781,125.070740 193.545624,117.855232 188.519653,110.030830 
M133.892670,150.226318 
	C133.892670,134.871094 133.892670,119.515869 133.892670,103.170715 
	C124.731537,109.524513 116.549232,115.337280 108.227440,120.942940 
	C89.792831,133.360748 71.357132,145.779678 52.771893,157.969482 
	C46.857319,161.848755 42.567623,165.998199 45.900372,174.493027 
	C64.005440,162.270599 82.127243,150.036880 101.166496,137.183807 
	C101.166496,142.494568 101.166496,146.689407 101.166496,150.895554 
	C112.237648,150.895554 122.722267,150.895554 133.892670,150.226318 
M348.992859,79.553314 
	C345.170837,76.641426 341.533600,78.464752 337.917053,80.027260 
	C332.377136,82.420731 326.901123,84.968369 321.307922,87.227585 
	C319.882233,87.803452 318.117432,87.539703 315.910034,87.707100 
	C319.586151,76.074760 327.605316,72.870972 338.325775,73.828484 
	C338.163910,73.294380 338.002075,72.760269 337.840210,72.226166 
	C335.087341,72.226166 332.334442,72.226166 329.234589,72.226166 
	C331.704651,66.934364 336.426636,63.290752 334.643890,57.398605 
	C326.682251,55.241070 323.333618,60.507664 320.531525,66.087593 
	C318.402557,70.327042 315.862244,72.247635 310.696259,72.154198 
	C290.043365,71.780632 269.379791,71.990074 248.720184,72.020081 
	C247.173981,72.022331 245.628204,72.310196 244.082245,72.465279 
	C244.135651,72.955948 244.189056,73.446609 244.242477,73.937271 
	C267.939178,73.937271 291.635895,73.937271 315.452393,73.937271 
	C313.271484,81.277000 307.436462,82.544815 301.243561,84.092857 
	C301.371582,79.002159 298.549896,77.098129 294.284851,78.099548 
	C289.755493,79.163033 285.394653,80.967316 280.990570,82.533493 
	C277.491577,83.777809 274.038361,85.150856 269.861725,86.733116 
	C270.363220,82.580574 270.684967,79.916214 271.211060,75.559944 
	C265.752106,78.390373 261.590302,80.548225 257.719330,82.555298 
	C257.430573,81.030884 257.191711,79.769691 256.952820,78.508492 
	C253.148819,79.324219 249.344803,80.139946 246.280411,80.797066 
	C243.931900,80.626747 241.004166,79.708527 240.425140,80.502708 
	C238.572617,83.043556 237.590683,86.219124 236.272675,89.149666 
	C236.859665,89.635521 237.446671,90.121384 238.033661,90.607239 
	C241.149963,89.009338 244.266281,87.411430 247.669800,85.666260 
	C247.940933,87.906525 248.115448,89.348473 248.445831,92.078346 
	C253.082352,89.463913 257.090271,87.203934 261.275879,84.843765 
	C261.275879,87.565109 261.275879,89.623161 261.275879,92.900116 
	C268.842896,90.349426 275.808868,88.001343 282.756561,85.659424 
	C283.346771,91.417198 285.899017,93.060501 291.682190,91.065994 
	C297.573669,89.034134 303.389801,86.783752 309.322937,84.598091 
	C310.856445,91.091644 313.252228,92.429871 319.767914,90.605515 
	C324.407288,89.306503 328.946960,87.651283 332.090851,86.625130 
	C334.379089,88.529503 335.879181,90.827629 337.338196,90.801849 
	C342.373688,90.712906 347.456848,90.120789 352.401581,89.123856 
	C356.257996,88.346352 359.935608,86.681831 364.140137,85.260185 
	C363.050598,90.655396 366.094543,92.135841 369.766907,90.857094 
	C376.598846,88.478157 383.144440,85.270950 389.757599,82.293709 
	C390.005096,82.182281 389.711975,80.869926 389.629272,79.357674 
	C385.097168,81.753441 381.127075,83.921219 377.081207,85.936821 
	C376.193817,86.378906 374.418396,86.733902 374.127380,86.338165 
	C373.440277,85.403778 372.839355,83.766510 373.220123,82.824364 
	C373.933868,81.058304 375.267975,79.499939 376.520233,78.002487 
	C380.423920,73.334358 384.762512,68.980385 388.221313,64.009766 
	C390.060211,61.367046 390.430328,57.702267 391.328979,54.915760 
	C385.998993,52.722332 382.946899,54.617405 380.734589,57.842304 
	C377.325409,62.811840 373.880096,67.810837 371.083221,73.130203 
	C368.512268,78.019913 365.197815,81.731827 359.963257,83.505821 
	C356.191406,84.784111 352.342773,85.835869 348.776764,86.913597 
	C349.072052,84.401970 349.323853,82.260086 348.992859,79.553314 
M276.671814,18.048403 
	C284.212616,15.286795 281.625336,8.989616 281.974304,3.586778 
	C281.413513,3.661963 281.055450,3.605720 280.835846,3.754200 
	C253.920700,21.953115 227.011444,40.160774 200.112915,58.384258 
	C192.087570,63.821342 191.789612,64.586502 193.752045,74.321861 
	C221.299530,55.624378 248.671814,37.045815 276.671814,18.048403 
M255.552933,106.068771 
	C249.833054,102.288345 243.552795,102.786949 237.358826,103.280457 
	C237.358826,112.731453 237.358826,121.790634 237.358826,131.000000 
	C241.205124,131.000000 244.693695,131.030548 248.181564,130.993683 
	C255.588699,130.915421 258.943665,125.677185 256.232269,118.645271 
	C255.764435,117.431923 255.757721,115.994743 255.750076,114.659744 
	C255.735031,112.034264 255.868912,109.407944 255.552933,106.068771 
M343.563232,130.998154 
	C344.985382,130.909943 346.407501,130.821747 348.223572,130.709106 
	C348.223572,127.286575 348.223572,124.243416 348.223572,121.200256 
	C348.606110,121.048027 348.988617,120.895805 349.371155,120.743576 
	C351.425720,124.035141 353.480316,127.326706 355.512421,130.582260 
	C357.885498,130.582260 360.386505,130.582260 363.316467,130.582260 
	C360.682617,126.514679 358.373718,122.948967 356.131165,119.485703 
	C361.560577,113.800667 361.483398,106.247711 355.964996,104.639519 
	C351.279633,103.274101 346.223938,103.179520 341.000916,102.478165 
	C341.000916,111.814384 340.945770,119.936264 341.072601,128.055298 
	C341.088013,129.039581 342.084717,130.008530 343.563232,130.998154 
M444.695312,129.217621 
	C442.478577,126.029205 440.261841,122.840797 438.028015,119.627762 
	C439.026093,118.532707 440.062286,117.667358 440.760376,116.584137 
	C444.229614,111.200928 441.809082,105.248329 435.499268,104.044594 
	C431.559937,103.293083 427.516815,103.085617 423.000061,102.575218 
	C423.000061,104.679054 423.000061,105.969788 423.000061,107.260513 
	C423.000061,115.027794 423.000061,122.795082 423.000061,130.776459 
	C425.135345,130.776459 426.859650,130.776459 428.956757,130.776459 
	C428.956757,127.477554 428.956757,124.371132 428.956757,121.264702 
	C429.436523,121.008194 429.916290,120.751694 430.396057,120.495186 
	C431.919250,122.584854 433.612762,124.573067 434.930450,126.785141 
	C437.744171,131.508698 439.482513,132.144882 444.695312,129.217621 
M288.998840,105.736870 
	C288.386139,100.233719 284.585571,104.227531 282.509552,103.039833 
	C282.248230,103.805099 282.058533,104.104454 282.056427,104.405083 
	C282.023468,109.221985 282.005615,114.039047 282.001984,118.856087 
	C281.995636,127.346794 283.862335,130.154968 292.170288,131.449646 
	C297.875977,132.338806 304.315765,129.465714 304.866669,123.124596 
	C305.435516,116.577446 304.993164,109.942436 304.993164,103.272423 
	C302.437531,103.272423 300.383820,103.272423 298.000000,103.272423 
	C298.000000,107.660843 298.210052,111.799316 297.938843,115.906006 
	C297.685638,119.739792 300.159454,125.810669 293.379486,125.746223 
	C287.117645,125.686707 289.271729,119.913284 289.039856,116.160088 
	C288.845612,113.015778 288.999939,109.849937 288.998840,105.736870 
M310.012482,104.742241 
	C310.012482,113.459267 310.012482,122.176292 310.012482,130.789520 
	C316.030945,130.789520 321.302979,130.789520 326.773468,130.789520 
	C326.773468,128.854294 326.773468,127.129944 326.773468,124.961578 
	C323.482971,124.961578 320.407043,124.961578 317.263184,124.961578 
	C317.263184,123.121971 317.263184,121.729836 317.263184,119.894058 
	C320.248566,119.894058 322.991150,119.894058 325.696838,119.894058 
	C325.696838,117.714783 325.696838,115.988434 325.696838,113.826202 
	C322.657471,113.826202 319.916595,113.826202 316.903381,113.826202 
	C317.066559,111.966942 317.188904,110.573326 317.347809,108.762756 
	C320.750610,108.762756 323.821564,108.762756 326.808563,108.762756 
	C326.808563,106.693031 326.808563,105.076080 326.808563,102.672432 
	C321.094604,103.054024 315.599518,103.420998 310.012482,104.742241 
M402.787415,103.106033 
	C402.787415,112.257065 402.787415,121.408096 402.787415,130.768600 
	C407.508362,130.768600 412.564972,130.768600 417.748535,130.768600 
	C417.748535,128.809143 417.748535,127.083397 417.748535,124.916756 
	C414.769897,124.916756 412.019318,124.916756 409.287903,124.916756 
	C409.287903,123.077003 409.287903,121.685349 409.287903,119.851379 
	C412.305420,119.851379 415.043701,119.851379 418.038635,119.851379 
	C417.940063,117.660484 417.862274,115.931648 417.765717,113.785217 
	C414.606415,113.785217 411.865234,113.785217 408.869995,113.785217 
	C409.060822,111.923370 409.203949,110.526520 409.343781,109.162201 
	C412.459137,109.013138 415.191284,108.882416 417.784424,108.758347 
	C417.784424,106.637794 417.784424,105.028175 417.784424,103.012688 
	C412.969910,103.012688 408.356354,103.012688 402.787415,103.106033 
M385.923187,117.610184 
	C384.878815,114.559662 383.609467,111.564499 382.841980,108.445831 
	C381.647034,103.589905 379.089233,101.630310 374.050903,103.586861 
	C377.219574,112.676804 380.386230,121.761017 383.555847,130.853668 
	C385.965149,130.853668 388.262604,130.853668 390.713562,130.853668 
	C393.849304,121.671501 396.956635,112.572533 400.020111,103.601952 
	C394.477600,101.305237 392.329041,104.097229 391.041351,108.654419 
	C389.893005,112.718330 388.442261,116.696793 387.124969,120.712967 
	C386.781586,120.596329 386.438202,120.479683 386.094818,120.363045 
	C386.059875,119.707680 386.024933,119.052322 385.923187,117.610184 
M267.913208,103.863640 
	C266.126404,103.494713 264.339569,103.125786 262.368469,102.718811 
	C262.368469,112.556969 262.368469,121.708282 262.368469,130.641968 
	C268.126892,130.641968 273.511597,130.641968 278.800171,130.641968 
	C278.800171,128.670898 278.800171,127.059433 278.800171,125.005005 
	C275.218567,125.005005 271.823181,125.005005 267.990112,125.005005 
	C267.990112,117.980972 267.990112,111.394684 267.913208,103.863640 
M371.299103,130.880066 
	C371.299103,121.712349 371.299103,112.544624 371.299103,103.260132 
	C369.459503,103.260132 367.405762,103.260132 365.250061,103.260132 
	C365.250061,112.565331 365.250061,121.609215 365.250061,130.984818 
	C367.120148,130.984818 368.743835,130.984818 371.299103,130.880066 
z"/>
<path fill="#2D3C8C" opacity="1.000000" stroke="none" 
	d="
M47.946384,133.000000 
	C33.155415,133.000000 18.856844,133.000000 4.280353,133.000000 
	C4.280353,93.621689 4.280353,54.568081 4.280353,15.000000 
	C16.473396,15.000000 28.581848,15.054650 40.689564,14.983745 
	C51.549011,14.920149 62.302589,15.045965 72.886261,18.322836 
	C93.797424,24.797268 96.512062,47.307304 87.100868,61.138618 
	C84.354698,65.174583 79.821533,67.994629 76.411552,71.095497 
	C82.483154,73.147217 88.721588,76.900589 91.658836,84.289345 
	C97.163864,98.137383 94.380745,118.000320 78.207161,126.491669 
	C68.745323,131.459259 58.795422,132.827225 47.946384,133.000000 
M40.620987,107.000000 
	C43.772533,106.999893 46.926926,107.085526 50.074997,106.980873 
	C55.693966,106.794090 60.012470,103.078140 60.971664,97.748573 
	C61.931862,92.413445 58.911472,86.356270 53.525108,85.177025 
	C47.912750,83.948311 41.999569,84.093651 36.000511,83.621094 
	C36.000511,91.005768 36.160278,97.304558 35.931152,103.589172 
	C35.821369,106.600464 37.025299,107.383522 40.620987,107.000000 
M54.430904,41.885231 
	C48.411716,41.009933 42.392529,40.134640 36.363266,39.257881 
	C36.363266,47.075336 36.363266,53.475033 36.363266,59.999393 
	C39.552822,59.999393 42.451214,60.401081 45.190968,59.912746 
	C50.322197,58.998150 55.854389,58.864761 58.246544,52.460888 
	C59.964794,47.861076 57.767952,45.057503 54.430904,41.885231 
z"/>
<path fill="#2D3C8C" opacity="1.000000" stroke="none" 
	d="
M188.731567,110.335281 
	C193.545624,117.855232 198.147781,125.070740 203.199142,132.990555 
	C190.896576,132.990555 179.347153,133.113708 167.808380,132.818878 
	C166.513565,132.785797 164.960190,130.573303 164.067108,129.053848 
	C156.677353,116.480965 149.414978,103.833199 141.856857,90.763321 
	C128.691986,99.678986 115.865990,108.365150 102.466736,117.439552 
	C102.466736,83.121498 102.466736,49.344166 102.466736,15.000000 
	C116.409500,15.000000 130.524063,14.562716 144.593094,15.173748 
	C152.299957,15.508465 160.148361,16.880505 167.545547,19.084770 
	C179.944412,22.779476 186.743378,31.371958 188.159546,44.666115 
	C189.252304,54.924332 187.668289,64.091316 180.928757,71.901810 
	C177.686035,75.659813 173.627548,78.713898 169.762634,82.247490 
	C175.650177,90.968262 182.084915,100.499550 188.731567,110.335281 
M147.368927,40.839291 
	C143.373993,40.466286 139.379074,40.093281 135.300049,39.712425 
	C135.300049,48.616570 135.300049,56.676041 135.300049,64.691589 
	C150.199707,66.553085 153.839325,61.650612 155.896057,53.915691 
	C157.352478,48.438511 153.941330,43.142368 147.368927,40.839291 
z"/>
<path fill="#2D3C8C" opacity="1.000000" stroke="none" 
	d="
M133.549774,150.560944 
	C122.722267,150.895554 112.237648,150.895554 101.166496,150.895554 
	C101.166496,146.689407 101.166496,142.494568 101.166496,137.183807 
	C82.127243,150.036880 64.005440,162.270599 45.900372,174.493027 
	C42.567623,165.998199 46.857319,161.848755 52.771893,157.969482 
	C71.357132,145.779678 89.792831,133.360748 108.227440,120.942940 
	C116.549232,115.337280 124.731537,109.524513 133.892670,103.170715 
	C133.892670,119.515869 133.892670,134.871094 133.549774,150.560944 
z"/>
<path fill="#1BADCF" opacity="1.000000" stroke="none" 
	d="
M349.284241,79.835754 
	C349.323853,82.260086 349.072052,84.401970 348.776764,86.913597 
	C352.342773,85.835869 356.191406,84.784111 359.963257,83.505821 
	C365.197815,81.731827 368.512268,78.019913 371.083221,73.130203 
	C373.880096,67.810837 377.325409,62.811840 380.734589,57.842304 
	C382.946899,54.617405 385.998993,52.722332 391.328979,54.915760 
	C390.430328,57.702267 390.060211,61.367046 388.221313,64.009766 
	C384.762512,68.980385 380.423920,73.334358 376.520233,78.002487 
	C375.267975,79.499939 373.933868,81.058304 373.220123,82.824364 
	C372.839355,83.766510 373.440277,85.403778 374.127380,86.338165 
	C374.418396,86.733902 376.193817,86.378906 377.081207,85.936821 
	C381.127075,83.921219 385.097168,81.753441 389.629272,79.357674 
	C389.711975,80.869926 390.005096,82.182281 389.757599,82.293709 
	C383.144440,85.270950 376.598846,88.478157 369.766907,90.857094 
	C366.094543,92.135841 363.050598,90.655396 364.140137,85.260185 
	C359.935608,86.681831 356.257996,88.346352 352.401581,89.123856 
	C347.456848,90.120789 342.373688,90.712906 337.338196,90.801849 
	C335.879181,90.827629 334.379089,88.529503 332.090851,86.625130 
	C328.946960,87.651283 324.407288,89.306503 319.767914,90.605515 
	C313.252228,92.429871 310.856445,91.091644 309.322937,84.598091 
	C303.389801,86.783752 297.573669,89.034134 291.682190,91.065994 
	C285.899017,93.060501 283.346771,91.417198 282.756561,85.659424 
	C275.808868,88.001343 268.842896,90.349426 261.275879,92.900116 
	C261.275879,89.623161 261.275879,87.565109 261.275879,84.843765 
	C257.090271,87.203934 253.082352,89.463913 248.445831,92.078346 
	C248.115448,89.348473 247.940933,87.906525 247.669800,85.666260 
	C244.266281,87.411430 241.149963,89.009338 238.033661,90.607239 
	C237.446671,90.121384 236.859665,89.635521 236.272675,89.149666 
	C237.590683,86.219124 238.572617,83.043556 240.425140,80.502708 
	C241.004166,79.708527 243.931900,80.626747 246.280411,80.797066 
	C249.344803,80.139946 253.148819,79.324219 256.952820,78.508499 
	C257.191711,79.769691 257.430573,81.030884 257.719330,82.555298 
	C261.590302,80.548225 265.752106,78.390373 271.211060,75.559944 
	C270.684967,79.916214 270.363220,82.580574 269.861725,86.733116 
	C274.038361,85.150856 277.491577,83.777809 280.990570,82.533493 
	C285.394653,80.967316 289.755493,79.163033 294.284851,78.099548 
	C298.549896,77.098129 301.371582,79.002159 301.243561,84.092857 
	C307.436462,82.544815 313.271484,81.277000 315.452393,73.937271 
	C291.635895,73.937271 267.939178,73.937271 244.242477,73.937271 
	C244.189056,73.446609 244.135651,72.955948 244.082245,72.465279 
	C245.628204,72.310196 247.173981,72.022331 248.720184,72.020081 
	C269.379791,71.990074 290.043365,71.780632 310.696259,72.154198 
	C315.862244,72.247635 318.402557,70.327042 320.531525,66.087593 
	C323.333618,60.507664 326.682251,55.241070 334.643890,57.398605 
	C336.426636,63.290752 331.704651,66.934364 329.234589,72.226166 
	C332.334442,72.226166 335.087341,72.226166 337.840210,72.226166 
	C338.002075,72.760269 338.163910,73.294380 338.325775,73.828484 
	C327.605316,72.870972 319.586151,76.074760 315.910034,87.707100 
	C318.117432,87.539703 319.882233,87.803452 321.307922,87.227585 
	C326.901123,84.968369 332.377136,82.420731 337.917053,80.027260 
	C341.533600,78.464752 345.170837,76.641426 349.284241,79.835754 
M291.082184,84.268524 
	C290.326202,83.541451 289.570190,82.814377 288.814240,82.087318 
	C287.693695,83.700401 286.573151,85.313484 285.118073,87.408173 
	C290.855011,88.097839 290.855011,88.097839 291.082184,84.268524 
z"/>
<path fill="#2D3C8C" opacity="1.000000" stroke="none" 
	d="
M276.357971,18.257828 
	C248.671814,37.045815 221.299530,55.624378 193.752045,74.321861 
	C191.789612,64.586502 192.087570,63.821342 200.112915,58.384258 
	C227.011444,40.160774 253.920700,21.953115 280.835846,3.754200 
	C281.055450,3.605720 281.413513,3.661963 281.974304,3.586778 
	C281.625336,8.989616 284.212616,15.286795 276.357971,18.257828 
z"/>
<path fill="#2D3C8C" opacity="1.000000" stroke="none" 
	d="
M255.747055,106.425369 
	C255.868912,109.407944 255.735031,112.034264 255.750076,114.659744 
	C255.757721,115.994743 255.764435,117.431923 256.232269,118.645271 
	C258.943665,125.677185 255.588699,130.915421 248.181564,130.993683 
	C244.693695,131.030548 241.205124,131.000000 237.358826,131.000000 
	C237.358826,121.790634 237.358826,112.731453 237.358826,103.280457 
	C243.552795,102.786949 249.833054,102.288345 255.747055,106.425369 
M247.135452,124.995415 
	C248.071716,123.957214 249.007996,122.919014 249.944244,121.880798 
	C247.876572,120.766174 245.808884,119.651550 242.505707,117.870911 
	C243.673904,121.601692 240.969559,125.411011 247.135452,124.995415 
M245.364304,113.997459 
	C246.887970,113.012138 248.411636,112.026817 249.935303,111.041489 
	C247.830505,110.188011 245.725708,109.334526 243.620911,108.481041 
	C243.236893,108.975273 242.852890,109.469513 242.468887,109.963745 
	C243.147400,111.304153 243.825897,112.644562 245.364304,113.997459 
z"/>
<path fill="#2D3C8C" opacity="1.000000" stroke="none" 
	d="
M343.094940,130.991364 
	C342.084717,130.008530 341.088013,129.039581 341.072601,128.055298 
	C340.945770,119.936264 341.000916,111.814384 341.000916,102.478165 
	C346.223938,103.179520 351.279633,103.274101 355.964996,104.639519 
	C361.483398,106.247711 361.560577,113.800667 356.131165,119.485703 
	C358.373718,122.948967 360.682617,126.514679 363.316467,130.582260 
	C360.386505,130.582260 357.885498,130.582260 355.512421,130.582260 
	C353.480316,127.326706 351.425720,124.035141 349.371155,120.743576 
	C348.988617,120.895805 348.606110,121.048027 348.223572,121.200256 
	C348.223572,124.243416 348.223572,127.286575 348.223572,130.709106 
	C346.407501,130.821747 344.985382,130.909943 343.094940,130.991364 
M348.009277,113.287514 
	C349.251984,113.745369 350.494720,114.203224 351.737427,114.661072 
	C352.118744,113.325630 352.982208,111.878525 352.708038,110.694916 
	C352.531982,109.934677 350.681244,109.562332 349.581146,109.016121 
	C349.054535,110.155075 348.527924,111.294029 348.009277,113.287514 
z"/>
<path fill="#2D3C8C" opacity="1.000000" stroke="none" 
	d="
M444.807037,129.602295 
	C439.482513,132.144882 437.744171,131.508698 434.930450,126.785141 
	C433.612762,124.573067 431.919250,122.584854 430.396057,120.495186 
	C429.916290,120.751694 429.436523,121.008194 428.956757,121.264702 
	C428.956757,124.371132 428.956757,127.477554 428.956757,130.776459 
	C426.859650,130.776459 425.135345,130.776459 423.000061,130.776459 
	C423.000061,122.795082 423.000061,115.027794 423.000061,107.260513 
	C423.000061,105.969788 423.000061,104.679054 423.000061,102.575218 
	C427.516815,103.085617 431.559937,103.293083 435.499268,104.044594 
	C441.809082,105.248329 444.229614,111.200928 440.760376,116.584137 
	C440.062286,117.667358 439.026093,118.532707 438.028015,119.627762 
	C440.261841,122.840797 442.478577,126.029205 444.807037,129.602295 
M429.010864,113.336014 
	C430.588928,113.779465 432.162140,114.460213 433.748657,114.492844 
	C434.126434,114.500610 435.193207,111.640930 434.831757,111.308426 
	C433.670654,110.240448 431.989410,109.737938 430.508820,109.017296 
	C430.006348,110.165230 429.503906,111.313164 429.010864,113.336014 
z"/>
<path fill="#2D3C8C" opacity="1.000000" stroke="none" 
	d="
M288.999390,106.215248 
	C288.999939,109.849937 288.845612,113.015778 289.039856,116.160088 
	C289.271729,119.913284 287.117645,125.686707 293.379486,125.746223 
	C300.159454,125.810669 297.685638,119.739792 297.938843,115.906006 
	C298.210052,111.799316 298.000000,107.660843 298.000000,103.272423 
	C300.383820,103.272423 302.437531,103.272423 304.993164,103.272423 
	C304.993164,109.942436 305.435516,116.577446 304.866669,123.124596 
	C304.315765,129.465714 297.875977,132.338806 292.170288,131.449646 
	C283.862335,130.154968 281.995636,127.346794 282.001984,118.856087 
	C282.005615,114.039047 282.023468,109.221985 282.056427,104.405083 
	C282.058533,104.104454 282.248230,103.805099 282.509552,103.039833 
	C284.585571,104.227531 288.386139,100.233719 288.999390,106.215248 
z"/>
<path fill="#2D3C8C" opacity="1.000000" stroke="none" 
	d="
M310.058472,104.265106 
	C315.599518,103.420998 321.094604,103.054024 326.808563,102.672432 
	C326.808563,105.076080 326.808563,106.693031 326.808563,108.762756 
	C323.821564,108.762756 320.750610,108.762756 317.347809,108.762756 
	C317.188904,110.573326 317.066559,111.966942 316.903381,113.826202 
	C319.916595,113.826202 322.657471,113.826202 325.696838,113.826202 
	C325.696838,115.988434 325.696838,117.714783 325.696838,119.894058 
	C322.991150,119.894058 320.248566,119.894058 317.263184,119.894058 
	C317.263184,121.729836 317.263184,123.121971 317.263184,124.961578 
	C320.407043,124.961578 323.482971,124.961578 326.773468,124.961578 
	C326.773468,127.129944 326.773468,128.854294 326.773468,130.789520 
	C321.302979,130.789520 316.030945,130.789520 310.012482,130.789520 
	C310.012482,122.176292 310.012482,113.459267 310.058472,104.265106 
z"/>
<path fill="#2D3C8C" opacity="1.000000" stroke="none" 
	d="
M403.265137,103.059357 
	C408.356354,103.012688 412.969910,103.012688 417.784424,103.012688 
	C417.784424,105.028175 417.784424,106.637794 417.784424,108.758347 
	C415.191284,108.882416 412.459137,109.013138 409.343781,109.162201 
	C409.203949,110.526520 409.060822,111.923370 408.869995,113.785217 
	C411.865234,113.785217 414.606415,113.785217 417.765717,113.785217 
	C417.862274,115.931648 417.940063,117.660484 418.038635,119.851379 
	C415.043701,119.851379 412.305420,119.851379 409.287903,119.851379 
	C409.287903,121.685349 409.287903,123.077003 409.287903,124.916756 
	C412.019318,124.916756 414.769897,124.916756 417.748535,124.916756 
	C417.748535,127.083397 417.748535,128.809143 417.748535,130.768600 
	C412.564972,130.768600 407.508362,130.768600 402.787415,130.768600 
	C402.787415,121.408096 402.787415,112.257065 403.265137,103.059357 
z"/>
<path fill="#2D3C8C" opacity="1.000000" stroke="none" 
	d="
M385.956604,118.003571 
	C386.024933,119.052322 386.059875,119.707680 386.094818,120.363045 
	C386.438202,120.479683 386.781586,120.596329 387.124969,120.712967 
	C388.442261,116.696793 389.893005,112.718330 391.041351,108.654419 
	C392.329041,104.097229 394.477600,101.305237 400.020111,103.601952 
	C396.956635,112.572533 393.849304,121.671501 390.713562,130.853668 
	C388.262604,130.853668 385.965149,130.853668 383.555847,130.853668 
	C380.386230,121.761017 377.219574,112.676804 374.050903,103.586861 
	C379.089233,101.630310 381.647034,103.589905 382.841980,108.445831 
	C383.609467,111.564499 384.878815,114.559662 385.956604,118.003571 
z"/>
<path fill="#2D3C8C" opacity="1.000000" stroke="none" 
	d="
M267.951660,104.336014 
	C267.990112,111.394684 267.990112,117.980972 267.990112,125.005005 
	C271.823181,125.005005 275.218567,125.005005 278.800171,125.005005 
	C278.800171,127.059433 278.800171,128.670898 278.800171,130.641968 
	C273.511597,130.641968 268.126892,130.641968 262.368469,130.641968 
	C262.368469,121.708282 262.368469,112.556969 262.368469,102.718811 
	C264.339569,103.125786 266.126404,103.494713 267.951660,104.336014 
z"/>
<path fill="#2D3C8C" opacity="1.000000" stroke="none" 
	d="
M370.833313,130.932434 
	C368.743835,130.984818 367.120148,130.984818 365.250061,130.984818 
	C365.250061,121.609215 365.250061,112.565331 365.250061,103.260132 
	C367.405762,103.260132 369.459503,103.260132 371.299103,103.260132 
	C371.299103,112.544624 371.299103,121.712349 370.833313,130.932434 
z"/>
<path fill="#FFFFFF" opacity="1.000000" stroke="none" 
	d="
M40.140720,106.999924 
	C37.025299,107.383522 35.821369,106.600464 35.931152,103.589172 
	C36.160278,97.304558 36.000511,91.005768 36.000511,83.621094 
	C41.999569,84.093651 47.912750,83.948311 53.525108,85.177025 
	C58.911472,86.356270 61.931862,92.413445 60.971664,97.748573 
	C60.012470,103.078140 55.693966,106.794090 50.074997,106.980873 
	C46.926926,107.085526 43.772533,106.999893 40.140720,106.999924 
z"/>
<path fill="#FFFFFF" opacity="1.000000" stroke="none" 
	d="
M54.827545,41.962101 
	C57.767952,45.057503 59.964794,47.861076 58.246544,52.460888 
	C55.854389,58.864761 50.322197,58.998150 45.190968,59.912746 
	C42.451214,60.401081 39.552822,59.999393 36.363266,59.999393 
	C36.363266,53.475033 36.363266,47.075336 36.363266,39.257881 
	C42.392529,40.134640 48.411716,41.009933 54.827545,41.962101 
z"/>
<path fill="#FFFFFF" opacity="1.000000" stroke="none" 
	d="
M147.783081,40.910954 
	C153.941330,43.142368 157.352478,48.438511 155.896057,53.915691 
	C153.839325,61.650612 150.199707,66.553085 135.300049,64.691589 
	C135.300049,56.676041 135.300049,48.616570 135.300049,39.712425 
	C139.379074,40.093281 143.373993,40.466286 147.783081,40.910954 
z"/>
<path fill="#FFFFFF" opacity="1.000000" stroke="none" 
	d="
M291.270874,84.617653 
	C290.855011,88.097839 290.855011,88.097839 285.118073,87.408173 
	C286.573151,85.313484 287.693695,83.700401 288.814209,82.087311 
	C289.570190,82.814377 290.326202,83.541451 291.270874,84.617653 
z"/>
<path fill="#FFFFFF" opacity="1.000000" stroke="none" 
	d="
M246.706787,124.997330 
	C240.969559,125.411011 243.673904,121.601692 242.505707,117.870911 
	C245.808884,119.651550 247.876572,120.766174 249.944244,121.880806 
	C249.007996,122.919014 248.071716,123.957214 246.706787,124.997330 
z"/>
<path fill="#FFFFFF" opacity="1.000000" stroke="none" 
	d="
M244.934357,113.991211 
	C243.825897,112.644562 243.147400,111.304153 242.468887,109.963745 
	C242.852890,109.469513 243.236893,108.975273 243.620911,108.481041 
	C245.725708,109.334526 247.830505,110.188011 249.935303,111.041489 
	C248.411636,112.026817 246.887970,113.012138 244.934357,113.991211 
z"/>
<path fill="#FFFFFF" opacity="1.000000" stroke="none" 
	d="
M348.005310,112.860245 
	C348.527924,111.294029 349.054535,110.155075 349.581146,109.016113 
	C350.681244,109.562332 352.531982,109.934677 352.708038,110.694916 
	C352.982208,111.878525 352.118744,113.325630 351.737427,114.661072 
	C350.494720,114.203224 349.251984,113.745369 348.005310,112.860245 
z"/>
<path fill="#FFFFFF" opacity="1.000000" stroke="none" 
	d="
M429.006165,112.898560 
	C429.503906,111.313164 430.006348,110.165230 430.508820,109.017296 
	C431.989410,109.737938 433.670654,110.240448 434.831757,111.308426 
	C435.193207,111.640930 434.126434,114.500610 433.748657,114.492844 
	C432.162140,114.460213 430.588928,113.779465 429.006165,112.898560 
z"/>
</svg>